<svg width="392" height="66" viewBox="0 0 392 66" fill="none" xmlns="http://www.w3.org/2000/svg">
<path d="M18.9697 16.6853H0V1.32812H55.4613V16.6853H36.4916V64.5547H18.9697V16.6853Z" fill="#FFFCF2"/>
<path d="M63.9531 1.32812H93.8516C103.519 1.32812 110.198 3.85781 114.448 8.1933C118.153 11.8049 120.045 16.6853 120.045 22.9122V23.0912C120.045 32.7585 114.9 39.1644 107.038 42.5114L122.123 64.5469H101.893L89.1578 45.3991H81.4828V64.5469H63.9609V1.32812H63.9531ZM93.0343 31.6766C98.9969 31.6766 102.43 28.7888 102.43 24.1809V24.0019C102.43 19.0359 98.8178 16.5062 92.9487 16.5062H81.475V31.6766H93.0343Z" fill="#FFFCF2"/>
<path d="M129.973 36.8294V1.33594H147.767V36.4713C147.767 45.5937 152.375 49.9292 159.42 49.9292C166.464 49.9292 171.072 45.7728 171.072 36.9228V1.33594H188.867V36.3779C188.867 56.7866 177.214 65.73 159.241 65.73C141.267 65.73 129.973 56.6076 129.973 36.8294Z" fill="#FFFCF2"/>
<path d="M197.02 1.03125V15.9214H248.316V1.03125H197.02ZM197.02 25.5108V39.3112H248.316V25.5108H197.02ZM197.02 49.3365V64.25H248.316V49.3365H197.02Z" fill="#FFFCF2"/>
<path d="M255.824 1.32812H280.212C302.793 1.32812 315.886 14.3346 315.886 32.5795V32.7585C315.886 51.0033 302.606 64.5469 279.846 64.5469H255.816V1.32812H255.824ZM280.484 49.0185C290.961 49.0185 297.912 43.2353 297.912 33.0309V32.8519C297.912 22.7331 290.961 16.8643 280.484 16.8643H273.346V49.0185H280.484Z" fill="#FFFCF2"/>
<path d="M323.898 33.0571V32.8781C323.898 14.7267 338.532 0 358.039 0C377.546 0 392.001 14.5398 392.001 32.6913V32.8703C392.001 51.0218 377.367 65.7485 357.86 65.7485C338.353 65.7485 323.898 51.2086 323.898 33.0571ZM374.113 33.0571V32.8781C374.113 23.7557 367.52 15.8086 357.852 15.8086C348.185 15.8086 341.864 23.5767 341.864 32.6991V32.8781C341.864 42.0006 348.457 49.9477 358.031 49.9477C367.606 49.9477 374.105 42.1796 374.105 33.0571H374.113Z" fill="#FFFCF2"/>
</svg>
